# xmcd
#
# Track frame offsets:
#	150
#	14235
#	32333
#	50144
#	68854
#	83146
#	98095
#	113465
#	130181
#	144091
#	160102
#	175393
#	196286
#	214253
#	229803
#	244702
#	260396
#	279608
#	310319
#	325128
#
# Disc length: 4513 seconds
#
# Revision: 2
# Processed by: cddbd v1.5.2PL0 Copyright (c) Steve Scherf et al.
# Submitted via: audiograbber 1.83.01
#
DISCID=18119f14
DTITLE=Various Artist - Promo Only Country Radio May 2008
DYEAR=2008
DGENRE=Country
TTITLE0=Toby Keith - She's A Hottie
TTITLE1=Carrie Underwood - Last Name
TTITLE2=Montgomery Gentry - Back When I Knew It All
TTITLE3=Kenny Chesney - Better As A Memory
TTITLE4=Luke Bryan - Country Man
TTITLE5=Tim McGraw - Kristofferson
TTITLE6=Kristina Cornell - That's The Way It Feels
TTITLE7=Rodney Atkins - Invisibly Shaken
TTITLE8=Will Peppers - Cheaper Than A Shrink
TTITLE9=Heidi Newfield - Johnny and June
TTITLE10=Gary Allan - Learning How To Bend
TTITLE11=Donna Ulisse - I'm Calling Heaven Down
TTITLE12=Gary Louris - Omaha Nights
TTITLE13=Kate Russell - The Man He Could Be
TTITLE14=Julio Iglesias Jr. - The Way I Want You
TTITLE15=Petrella - I Want To Know You Forever
TTITLE16=Dana Walker  - She Knows The Pain By Heart
TTITLE17=American Babies - American Babies
TTITLE18=The Wood Brothers - Lovin' Arms
TTITLE19=Ms. Scooter Lee - Speak To The Sky
EXTD=
EXTT0=
EXTT1=
EXTT2=
EXTT3=
EXTT4=
EXTT5=
EXTT6=
EXTT7=
EXTT8=
EXTT9=
EXTT10=
EXTT11=
EXTT12=
EXTT13=
EXTT14=
EXTT15=
EXTT16=
EXTT17=
EXTT18=
EXTT19=
PLAYORDER=
